# xmcd
#
# Track frame offsets:
#	150
#	22701
#	45891
#	61020
#	79749
#	104730
#	124232
#	144517
#	167457
#	186938
#	205803
#	224540
#	244832
#
# Disc length: 3562 seconds
# Revision: 9
# Processed by: cddbd v1.5.2PL0 Copyright (c) Steve Scherf et al.
# Submitted via: dBpowerAMP V12.0
#
DISCID=ad0de80d
DTITLE=Various Artist - Tuskegee
DYEAR=2012
DGENRE=Country
TTITLE0=Lionel Richie and Blake Shelton - You Are
TTITLE1=Lionel Richie and Jason Aldean - Say You, Say Me
TTITLE2=Lionel Richie and Darius Rucker - Stuck On You
TTITLE3=Lionel Richie and Little Big Town - Deep River Woman
TTITLE4=Lionel Richie and Kenny Chesney - My Love
TTITLE5=Lionel Richie and Rascal Flatts - Dancing On The Ceiling
TTITLE6=Lionel Richie and Jennifer Nettles - Hello
TTITLE7=Lionel Richie and Tim McGraw - Sail On
TTITLE8=Lionel Richie and Shania Twain - Endless Love
TTITLE9=Lionel Richie and Billy Currington - Just For You
TTITLE10=Lionel Richie and Kenny Rogers - Lady
TTITLE11=Lionel Richie and Willie Nelson - Easy
TTITLE12=Lionel Richie, Jimmy Buffett and Coral Reefer Band - All Night Long
EXTD=
EXTT0=
EXTT1=
EXTT2=
EXTT3=
EXTT4=
EXTT5=
EXTT6=
EXTT7=
EXTT8=
EXTT9=
EXTT10=
EXTT11=
EXTT12=
PLAYORDER=
